<svg id="engine-smoke" xmlns="http://www.w3.org/2000/svg" viewBox="0 0 215.98 150.02" class = "animation__engine-smoke">
  <defs>
    <style>
      .cls-1-enginesmoke {
        fill: #333;
      }
    </style>
  </defs>
  <path id="car-engine-smoke" class="cls-1-enginesmoke " d="M281.31,122.7a11.68,11.68,0,0,0,.77-4.18c0-9-10.35-16.37-23.18-16.49a31.5,31.5,0,0,0-60.42-17.84l-.21.74a29.41,29.41,0,0,0-.68,2.92L197,88V86.52a28.5,28.5,0,1,0-56.51,5.24,32.45,32.45,0,0,0-17-4.74C106.68,87,93,99.56,93,115a25.28,25.28,0,0,0,.46,4.84A29,29,0,0,0,106,175a15.82,15.82,0,0,0,2.28-.1,16.5,16.5,0,0,0,29.62,1.64A22.6,22.6,0,0,0,148.38,179a17.91,17.91,0,0,0-.35,3.5c0,11.87,11.86,21.5,26.5,21.5a29.28,29.28,0,0,0,20-7.45C197.68,203.43,203.42,208,210,208c5,0,9.53-2.67,12.8-7A28.49,28.49,0,0,0,264,175.51V175h0a29,29,0,0,0,17.23-52.32Z" transform="translate(-77 -58)"/>
</svg>
