<svg id="broke-exhaust-smoke" xmlns="http://www.w3.org/2000/svg" viewBox="0 0 88.89 49.96" class = "animation__exhaust--broke">
  <defs>
    <style>
      .cls-1-broke-exhaust {
        fill: #e6e6e6;
      }
    </style>
  </defs>
  <g id="smoke-three">
    <path class="cls-1-broke-exhaust" d="M137.89,55a6,6,0,0,0-5.67-6,7,7,0,0,0-11.33-1.91,12,12,0,0,0-9-4.09,11.52,11.52,0,0,0-2.87.36A7,7,0,0,0,99.2,53a7,7,0,0,0,6.63,12.28,11.94,11.94,0,0,0,14.62-1.94,7,7,0,0,0,12.16-2.45A6,6,0,0,0,137.89,55Z" transform="translate(-49 -42)"/>
  </g>
  <g id="smoke-two">
    <path class="cls-1-broke-exhaust" d="M132.89,80a6,6,0,0,0-5.67-6,7,7,0,0,0-11.33-1.91,12,12,0,0,0-9-4.09,11.52,11.52,0,0,0-2.87.36A7,7,0,0,0,94.2,78a7,7,0,0,0,6.63,12.28,11.94,11.94,0,0,0,14.62-1.94,7,7,0,0,0,12.16-2.45A6,6,0,0,0,132.89,80Z" transform="translate(-49 -42)"/>
  </g>
  <g id="smoke-one">
    <path class="cls-1-broke-exhaust" d="M90.89,60a6,6,0,0,0-5.67-6,7,7,0,0,0-11.33-1.91,12,12,0,0,0-9-4.09,11.52,11.52,0,0,0-2.87.36A7,7,0,0,0,52.2,58,7,7,0,0,0,58.83,70.3a11.94,11.94,0,0,0,14.62-1.94,7,7,0,0,0,12.16-2.45A6,6,0,0,0,90.89,60Z" transform="translate(-49 -42)"/>
  </g>
</svg>
