<svg id="Layer_1" data-name="Layer 1" xmlns="http://www.w3.org/2000/svg" viewBox="0 0 1018.32 428.35">
  <defs>
    <style>
      .cls-1, .cls-4 {
        fill: #333;
      }

      .cls-2, .cls-5 {
        fill: none;
      }

      .cls-2, .cls-3, .cls-4 {
        stroke: #000;
        stroke-miterlimit: 10;
        stroke-width: 5px;
      }

      .cls-3 {
        fill: #c69c6d;
      }

      .cls-6 {
        fill: #e6e6e6;
      }
    </style>
  </defs>
  <path id="car-engine-smoke" class="cls-1" d="M1254.66,332.06a11.73,11.73,0,0,0,.77-4.18c0-9-10.35-16.37-23.18-16.49a31.5,31.5,0,1,0-60.63-17.1,28.77,28.77,0,0,0-.68,2.92l-.55.12v-1.45a28.5,28.5,0,1,0-56.51,5.24,32.36,32.36,0,0,0-17-4.74c-16.85,0-30.5,12.54-30.5,28a25.43,25.43,0,0,0,.46,4.84,29,29,0,0,0,12.54,55.16,17.25,17.25,0,0,0,2.28-.1,16.5,16.5,0,0,0,29.62,1.64,22.72,22.72,0,0,0,10.45,2.46,17.83,17.83,0,0,0-.35,3.5c0,11.87,11.86,21.5,26.5,21.5a29.28,29.28,0,0,0,20-7.45c3.15,6.86,8.89,11.45,15.46,11.45,5,0,9.53-2.67,12.8-7a28.49,28.49,0,0,0,41.2-25.51v-.5h0a29,29,0,0,0,17.23-52.32Z" transform="translate(-248.01 -196.03)"/>
  <g id="car-main">
    <rect id="car-light" class="cls-2" x="917.92" y="250.85" width="28" height="86"/>
    <path class="cls-3" d="M1193.93,446.88v-73H1053.39L994.81,210.53c0-6.62-3.89-12-8.63-12H612.68c-4.74,0-8.63,5.41-8.63,12L545.47,373.88H403.93v248h95a76,76,0,0,1,152,0h268a76,76,0,0,1,152,0h123v-89h-28v-86Zm-420-73H566.71L622.44,218.5H773.93Zm32,0V218.5H976.42l55.73,155.38Z" transform="translate(-248.01 -196.03)"/>
    <rect class="cls-4" x="96.92" y="372.85" width="59" height="36"/>
    <g>
      <line class="cls-5" x1="390.42" y1="38.35" x2="377.42" y2="82.35"/>
      <path d="M638.43,234.38c-.69,3.78-1.57,7.51-2.51,11.22s-2,7.39-3,11.06-2.26,7.34-3.5,10.94-2.51,7.23-4,10.78c.68-3.78,1.55-7.51,2.5-11.22s2-7.39,3-11.06,2.22-7.32,3.46-10.94S637,237.93,638.43,234.38Z" transform="translate(-248.01 -196.03)"/>
    </g>
    <path d="M966.54,229.86c1.14,3.68,2.08,7.39,3,11.11s1.66,7.47,2.41,11.22,1.4,7.52,2,11.3,1.11,7.57,1.43,11.41c-1.14-3.68-2.08-7.39-3-11.11s-1.66-7.47-2.41-11.22-1.4-7.52-2-11.3S966.86,233.69,966.54,229.86Z" transform="translate(-248.01 -196.03)"/>
  </g>
  <g id="smoke-three">
    <path class="cls-6" d="M337,569.54a6,6,0,0,0-5.67-6A7,7,0,0,0,320,561.63a12,12,0,0,0-9-4.09,11.58,11.58,0,0,0-2.87.36,7,7,0,0,0-9.82,9.7,7,7,0,0,0,6.63,12.28,11.94,11.94,0,0,0,14.62-1.94,7,7,0,0,0,12.16-2.45A6,6,0,0,0,337,569.54Z" transform="translate(-248.01 -196.03)"/>
  </g>
  <g id="smoke-one">
    <path class="cls-6" d="M332,594.54a6,6,0,0,0-5.67-6A7,7,0,0,0,315,586.63a12,12,0,0,0-9-4.09,11.58,11.58,0,0,0-2.87.36,7,7,0,0,0-9.82,9.7,7,7,0,0,0,6.63,12.28,11.94,11.94,0,0,0,14.62-1.94,7,7,0,0,0,12.16-2.45A6,6,0,0,0,332,594.54Z" transform="translate(-248.01 -196.03)"/>
  </g>
  <g id="smoke-one-2">
    <path class="cls-6" d="M290,574.54a6,6,0,0,0-5.67-6A7,7,0,0,0,273,566.63a12,12,0,0,0-9-4.09,11.58,11.58,0,0,0-2.87.36,7,7,0,0,0-9.82,9.7,7,7,0,0,0,6.63,12.28,11.94,11.94,0,0,0,14.62-1.94,7,7,0,0,0,12.16-2.45A6,6,0,0,0,290,574.54Z" transform="translate(-248.01 -196.03)"/>
  </g>
</svg>
