<svg id="broken-car" xmlns="http://www.w3.org/2000/svg" viewBox="0 0 854 428.35" class = "animation__broke--car">
  <defs>
    <style>
      .cls-1-brokencar, .cls-4-brokencar {
        fill: none;
      }

      .cls-1-brokencar, .cls-2-brokencar, .cls-3-brokencar {
        stroke: #000;
        stroke-miterlimit: 10;
        stroke-width: 5px;
      }

      .cls-2-brokencar {
        fill: #c69c6d;
      }

      .cls-3-brokencar {
        fill: #333;
      }
    </style>
  </defs>
  <g id="car-main">
    <rect id="car-light" class="cls-1-brokencar" x="823.5" y="250.85" width="28" height="86"/>
    <path class="cls-2-brokencar" d="M924.5,330.85v-73H784L725.38,94.5c0-6.62-3.89-12-8.63-12H343.25c-4.74,0-8.63,5.41-8.63,12L276,257.85H134.5v248h95a76,76,0,0,1,152,0h268a76,76,0,0,1,152,0h123v-89h-28v-86Zm-420-73H297.28L353,102.47H504.5Zm32,0V102.47H707l55.73,155.38Z" transform="translate(-73 -80)"/>
    <rect class="cls-3-brokencar" x="2.5" y="372.85" width="59" height="36"/>
    <g>
      <line class="cls-4-brokencar" x1="296" y1="38.35" x2="283" y2="82.35"/>
      <path d="M369,118.35c-.69,3.78-1.57,7.51-2.51,11.22s-2,7.39-3,11.06-2.26,7.34-3.5,10.94-2.51,7.23-4,10.78c.68-3.78,1.55-7.51,2.5-11.22s2-7.39,3-11.06,2.22-7.32,3.46-10.94S367.57,121.9,369,118.35Z" transform="translate(-73 -80)"/>
    </g>
    <path d="M697.11,113.83c1.14,3.68,2.08,7.39,3,11.11s1.66,7.47,2.41,11.22,1.4,7.52,2,11.3,1.11,7.57,1.43,11.41c-1.14-3.68-2.08-7.39-3-11.11s-1.66-7.47-2.41-11.22-1.4-7.52-2-11.3S697.43,117.66,697.11,113.83Z" transform="translate(-73 -80)"/>
  </g>
</svg>
