<svg id="Layer_1" data-name="Layer 1" class = "animation__front-wheel" xmlns="http://www.w3.org/2000/svg" viewBox="0 0 150 150.51">
  <defs>
    <style>
      .cls-1-frontwheel {
        fill: none;
        stroke: #000;
        stroke-miterlimit: 10;
        stroke-width: 3px;
      }
    </style>
  </defs>
  <g id="car-tire">
    <g id="outside-tire">
      <path d="M75,3A72,72,0,1,1,3,75,72.08,72.08,0,0,1,75,3m0-3a75,75,0,1,0,75,75A75,75,0,0,0,75,0Z"/>
    </g>
    <g id="inside-tire">
      <path d="M75,59A16,16,0,1,1,59,75,16,16,0,0,1,75,59m0-3A19,19,0,1,0,94,75,19,19,0,0,0,75,56Z"/>
      <line class="cls-1-frontwheel" x1="74.5" y1="56.5" x2="74.21" y2="2.58"/>
      <line class="cls-1-frontwheel" x1="87.21" y1="64.08" x2="123.5" y2="21.5"/>
      <line class="cls-1-frontwheel" x1="94.71" y1="75.08" x2="149.5" y2="75.5"/>
      <line class="cls-1-frontwheel" x1="89.29" y1="85" x2="131.21" y2="123.08"/>
      <line class="cls-1-frontwheel" x1="74.21" y1="92.58" x2="74.5" y2="150.5"/>
      <line class="cls-1-frontwheel" x1="59.5" y1="85.5" x2="22.5" y2="128.5"/>
      <line class="cls-1-frontwheel" x1="56.5" y1="75.5" x2="0.5" y2="75.5"/>
      <line class="cls-1-frontwheel" x1="62.21" y1="65.08" x2="17.21" y2="30.08"/>
    </g>
  </g>
</svg>
