<svg id="whole-car" xmlns="http://www.w3.org/2000/svg" xmlns:xlink="http://www.w3.org/1999/xlink" viewBox="0 0 974.05 384">
  <defs>
    <style>
      .cls-1-nice-car, .cls-2-nice-car, .cls-9-nice-car {
        fill: none;
      }

      .cls-2-nice-car, .cls-3-nice-car, .cls-7-nice-car {
        stroke: #000;
        stroke-width: 5px;
      }

      .cls-2-nice-car, .cls-3-nice-car, .cls-7-nice-car, .cls-9-nice-car {
        stroke-miterlimit: 10;
      }

      .cls-3-nice-car {
        fill: #4d4d4d;
      }

      .cls-4-nice-car {
        clip-path: url(#clip-path);
      }

      .cls-5-nice-car {
        fill: #9e005d;
      }

      .cls-6-nice-car {
        fill: #93278f;
      }

      .cls-7-nice-car {
        fill: #fff;
      }

      .cls-8-nice-car {
        fill: #e6e6e6;
      }

      .cls-9-nice-car {
        stroke: #fbb03b;
        stroke-width: 3px;
      }
    </style>
    <clipPath id="clip-path" transform="translate(-142 -65)">
      <path class="cls-1-nice-car" d="M1017.5,276.5V257.14a34.64,34.64,0,0,0-34.64-34.64H936.13l-44.8-122.11A33.38,33.38,0,0,0,860,78.5H543a33.38,33.38,0,0,0-31.35,21.89L466.87,222.5H393.42l-8.41-33H400.5a15,15,0,0,0,15-15h-116l28,15h38.94l8.41,33a13.35,13.35,0,0,0-13.35,13.35V375.76a34.75,34.75,0,0,0,34.74,34.74h37.27c0-.17,0-.33,0-.5a62.5,62.5,0,0,1,125,0c0,.17,0,.33,0,.5h230c0-.17,0-.33,0-.5a62.5,62.5,0,0,1,125,0c0,.17,0,.33,0,.5h63.77a40.25,40.25,0,0,0,40.24-40.24V346.5h-23v-70Zm-335-54H483.91l42.78-116.6A17.46,17.46,0,0,1,543,94.5H682.5Zm27,0V94.5H860a17.46,17.46,0,0,1,16.33,11.4l42.78,116.6Z"/>
    </clipPath>
  </defs>
  <rect id="car-light" class="cls-2-nice-car" x="853.5" y="211.5" width="23" height="70"/>
  <rect id="exhaust" class="cls-3-nice-car" x="170.5" y="301.5" width="50" height="19"/>
  <g id="car-body">
    <g class="cls-4-nice-car">
      <path class="cls-5-nice-car" d="M301.5,250.5c6,0,10,6,16,7,7,1,14,2,20,5,38,17,78,26,119,18,109-23,206-3,311,20,21,5,42,4,63,1a531.08,531.08,0,0,1,126,0c11,1,22,2,34,4,24.2,4.46,47.18,11.75,70.5,16.72V65H256V230.79a295.22,295.22,0,0,0,36.5,19.71C295.5,251.5,298.5,250.5,301.5,250.5Z" transform="translate(-142 -65)"/>
      <path class="cls-6-nice-car" d="M990.5,305.5c-12-2-23-3-34-4a531.07,531.07,0,0,0-126,0c-21,3-42,4-63-1-105-23-202-43-311-20-41,8-81-1-119-18-6-3-13-4-20-5-6-1-10-7-16-7-3,0-6,1-9,0A295.22,295.22,0,0,1,256,230.79V449h805V322.22C1037.68,317.25,1014.7,310,990.5,305.5Z" transform="translate(-142 -65)"/>
    </g>
    <path class="cls-2-nice-car" d="M1017.5,276.5V257.14a34.64,34.64,0,0,0-34.64-34.64H936.13l-44.8-122.11A33.38,33.38,0,0,0,860,78.5H543a33.38,33.38,0,0,0-31.35,21.89L466.87,222.5H393.42l-8.41-33H400.5a15,15,0,0,0,15-15h-116l28,15h38.94l8.41,33a13.35,13.35,0,0,0-13.35,13.35V375.76a34.75,34.75,0,0,0,34.74,34.74h37.27c0-.17,0-.33,0-.5a62.5,62.5,0,0,1,125,0c0,.17,0,.33,0,.5h230c0-.17,0-.33,0-.5a62.5,62.5,0,0,1,125,0c0,.17,0,.33,0,.5h63.77a40.25,40.25,0,0,0,40.24-40.24V346.5h-23v-70Zm-335-54H483.91l42.78-116.6A17.46,17.46,0,0,1,543,94.5H682.5Zm27,0V94.5H860a17.46,17.46,0,0,1,16.33,11.4l42.78,116.6Z" transform="translate(-142 -65)"/>
    <path class="cls-7-nice-car" d="M683.5,94.5v128H484.91l42.78-116.6A17.46,17.46,0,0,1,544,94.5Z" transform="translate(-142 -65)"/>
    <path class="cls-7-nice-car" d="M920.09,222.5H710.5V94.5H861a17.46,17.46,0,0,1,16.33,11.4Z" transform="translate(-142 -65)"/>
  </g>
  <polygon class="cls-8-nice-car" points="393.15 88.3 394.59 86.59 403.85 48.7 402.41 50.41 393.15 88.3"/>
  <polygon class="cls-8-nice-car" points="722.59 48.71 722.14 50.9 732.22 88.58 732.67 86.39 722.59 48.71"/>
  <path id="car-smoke" class="cls-8-nice-car" d="M274.49,357.65a20,20,0,0,0-16,8.22c-.18,0-.36,0-.55,0A13.3,13.3,0,0,0,252.5,367a24.38,24.38,0,0,0-43.23-5.36,16.25,16.25,0,0,0-10.49-4,16.47,16.47,0,0,0-11.43,4.88c-1.53-10.61-7.47-18.53-14.59-18.53-8,0-14.6,10.12-14.95,22.81-9.17,2.58-15.81,10-15.81,18.82,0,10.32,9.14,18.79,20.8,19.7a25,25,0,0,0-5,15.1c0,13.57,10.6,24.57,23.66,24.57a23.1,23.1,0,0,0,16.41-6.89,19.36,19.36,0,0,0,7.25,1.43c9.12,0,16.83-6.33,19.5-15.09.6,0,1.19.08,1.8.08,15.24,0,27.6-10.7,27.6-23.89,0-.44-.05-.88-.08-1.32a13.16,13.16,0,0,0,4,.64,13.4,13.4,0,0,0,6.29-1.59,19.46,19.46,0,0,0,10.27,2.95c11.33,0,20.51-9.77,20.51-21.83S285.82,357.65,274.49,357.65Z" transform="translate(-142 -65)"/>
  <g id="car-light-beams">
    <line class="cls-9-nice-car" x1="895" y1="212" x2="944" y2="187"/>
    <line class="cls-9-nice-car" x1="902" y1="226" x2="954" y2="211"/>
    <line class="cls-9-nice-car" x1="903.95" y1="237.5" x2="974.05" y2="237.5"/>
    <line class="cls-9-nice-car" x1="910.47" y1="253.34" x2="963.86" y2="262.2"/>
    <line class="cls-9-nice-car" x1="911.77" y1="268.42" x2="962.56" y2="287.11"/>
  </g>
</svg>
